<svg xmlns="http://www.w3.org/2000/svg" width="1577.956" height="1366.57" viewBox="0 0 1577.956 1366.57">
  <g id="undraw_developer" transform="translate(0.001 -0.003)">
    <path id="Path_1" data-name="Path 1" d="M1589.35,790.772a653.394,653.394,0,0,1-182.344,453.6q-10.6,11.1-21.767,21.656-17.017,16.187-35.178,31.119A652.887,652.887,0,0,1,948.7,1445.992q-7.333.166-14.72.166c-117.006,0-264.173-62.5-397.725-149.011q-16.574-10.736-32.853-21.97-7.609-5.2-15.145-10.551a1347.453,1347.453,0,0,1-146.318-119.533,948.333,948.333,0,0,1-84.393-90.24C154.934,928.272,132.3,814.217,278.6,790.772q25.982-4.15,50.433-8.873,35.418-6.807,67.791-14.7,43.608-10.6,81.94-22.984,12.894-4.15,25.2-8.467c121.267-42.593,202.432-98.135,257.679-158.4q14.056-15.3,25.917-30.972a435.448,435.448,0,0,0,32.89-50.027,470.2,470.2,0,0,0,33.96-75.723l.5-1.439c43.958-126.8,30.584-244.416,79.08-283.781,207.3-168.288,465.387,71.37,586.526,353.989q9.159,21.361,17.229,42.98,3.625,9.657,6.991,19.35,8.854,25.262,16.067,50.654,2.767,9.684,5.276,19.35,2.683,10.431,5.091,20.826C1582.95,693.337,1589.35,743.419,1589.35,790.772Z" transform="translate(-174.731 -79.585)" fill="#f2f2f2"/>
    <path id="Path_2" data-name="Path 2" d="M798.208,942.58q-7.332.166-14.72.166c-117.006,0-264.173-62.5-397.725-149.011Q369.188,783,352.909,771.765l9.518-57.922L650.58,675.585,795.2,786.172Z" transform="translate(-24.233 423.827)" fill="#2f2e41"/>
    <g id="Group_2" data-name="Group 2" transform="translate(9 4)">
      <path id="Path_3" data-name="Path 3" d="M622.827,259.635H581.765a4.8,4.8,0,0,0-4.8,4.8v41.08a4.783,4.783,0,0,0,4.8,4.778h41.062a4.8,4.8,0,0,0,4.8-4.778v-41.08a4.81,4.81,0,0,0-4.8-4.8Z" transform="translate(165.02 72.494)" fill="#fff"/>
      <path id="Path_4" data-name="Path 4" d="M622.827,297.585H581.765a4.8,4.8,0,0,0-4.8,4.8v41.08a4.782,4.782,0,0,0,4.8,4.778h41.062a4.8,4.8,0,0,0,4.8-4.778v-41.08a4.81,4.81,0,0,0-4.8-4.8Z" transform="translate(165.02 104.548)" fill="#e6e6e6"/>
      <path id="Path_5" data-name="Path 5" d="M622.827,335.535H581.765a4.8,4.8,0,0,0-4.8,4.8V381.4a4.786,4.786,0,0,0,4.8,4.8h41.062a4.8,4.8,0,0,0,4.8-4.8V340.331a4.811,4.811,0,0,0-4.8-4.8Z" transform="translate(165.02 136.603)" fill="#e6e6e6"/>
      <path id="Path_6" data-name="Path 6" d="M627.549,377.433a4.828,4.828,0,0,0-4.722-3.948H581.765a4.8,4.8,0,0,0-4.8,4.8v41.062a4.786,4.786,0,0,0,4.8,4.8h41.062a4.8,4.8,0,0,0,4.8-4.8V378.281a4.259,4.259,0,0,0-.074-.849Z" transform="translate(165.02 168.657)" fill="#e6e6e6"/>
      <path id="Path_7" data-name="Path 7" d="M624.69,411.8a4.86,4.86,0,0,0-1.863-.369H581.765a4.787,4.787,0,0,0-4.8,4.8v41.062a4.775,4.775,0,0,0,4.8,4.8h41.062a4.8,4.8,0,0,0,4.8-4.8V416.231a4.825,4.825,0,0,0-2.933-4.427Z" transform="translate(165.02 200.712)" fill="#e6e6e6"/>
      <path id="Path_8" data-name="Path 8" d="M669.587,259.635H628.525a4.8,4.8,0,0,0-4.8,4.8v41.08a4.782,4.782,0,0,0,4.8,4.778h41.062a4.8,4.8,0,0,0,4.8-4.778v-41.08a4.81,4.81,0,0,0-4.8-4.8Z" transform="translate(204.516 72.494)" fill="#ffc107"/>
      <path id="Path_9" data-name="Path 9" d="M669.587,297.585H628.525a4.8,4.8,0,0,0-4.8,4.8v41.08a4.782,4.782,0,0,0,4.8,4.778h41.062a4.794,4.794,0,0,0,4.8-4.778v-41.08a4.81,4.81,0,0,0-4.8-4.8Z" transform="translate(204.516 104.548)" fill="#ffc107"/>
      <path id="Path_10" data-name="Path 10" d="M669.587,335.535H628.525a4.8,4.8,0,0,0-4.8,4.8V381.4a4.786,4.786,0,0,0,4.8,4.8h41.062a4.8,4.8,0,0,0,4.8-4.8V340.331a4.811,4.811,0,0,0-4.8-4.8Z" transform="translate(204.516 136.603)" fill="#ffc107"/>
      <path id="Path_11" data-name="Path 11" d="M669.587,373.485H628.525a4.782,4.782,0,0,0-4.538,3.283,4.565,4.565,0,0,0-.258,1.513v41.062a4.786,4.786,0,0,0,4.8,4.8h41.062a4.8,4.8,0,0,0,4.8-4.8V378.281a4.81,4.81,0,0,0-4.8-4.8Z" transform="translate(204.516 168.657)" fill="#e6e6e6"/>
      <path id="Path_12" data-name="Path 12" d="M669.587,411.435H628.525a4.786,4.786,0,0,0-4.8,4.8V457.3a4.787,4.787,0,0,0,4.8,4.8h41.062a4.8,4.8,0,0,0,4.8-4.8V416.231a4.8,4.8,0,0,0-4.8-4.8Z" transform="translate(204.516 200.712)" fill="#ffc107"/>
      <path id="Path_13" data-name="Path 13" d="M716.347,259.635H675.285a4.8,4.8,0,0,0-4.8,4.8v41.08a4.782,4.782,0,0,0,4.8,4.778h41.062a4.8,4.8,0,0,0,4.8-4.778v-41.08a4.81,4.81,0,0,0-4.8-4.8Z" transform="translate(244.012 72.494)" fill="#ffc107"/>
      <path id="Path_14" data-name="Path 14" d="M716.347,297.585H675.285a4.8,4.8,0,0,0-4.8,4.8v41.08a4.782,4.782,0,0,0,4.8,4.778h41.062a4.794,4.794,0,0,0,4.8-4.778v-41.08a4.81,4.81,0,0,0-4.8-4.8Z" transform="translate(244.012 104.548)" fill="#e6e6e6"/>
      <path id="Path_15" data-name="Path 15" d="M716.347,335.535H675.285a4.8,4.8,0,0,0-4.8,4.8V381.4a4.786,4.786,0,0,0,4.8,4.8h41.062a4.8,4.8,0,0,0,4.8-4.8V340.331a4.811,4.811,0,0,0-4.8-4.8Z" transform="translate(244.012 136.603)" fill="#ffc107"/>
      <path id="Path_16" data-name="Path 16" d="M716.347,373.485H675.285a4.8,4.8,0,0,0-4.8,4.8v41.062a4.786,4.786,0,0,0,4.8,4.8h41.062a4.8,4.8,0,0,0,4.8-4.8V378.281a4.81,4.81,0,0,0-4.8-4.8Z" transform="translate(244.012 168.657)" fill="#e6e6e6"/>
      <path id="Path_17" data-name="Path 17" d="M716.347,411.435H675.285a4.787,4.787,0,0,0-4.8,4.8V457.3a4.786,4.786,0,0,0,4.8,4.8h41.062a4.8,4.8,0,0,0,4.8-4.8V416.231a4.8,4.8,0,0,0-4.8-4.8Z" transform="translate(244.012 200.712)" fill="#ffc107"/>
      <path id="Path_18" data-name="Path 18" d="M763.107,259.635H722.045a4.8,4.8,0,0,0-4.8,4.8v41.08a4.783,4.783,0,0,0,4.8,4.778h41.062a4.8,4.8,0,0,0,4.8-4.778v-41.08A4.81,4.81,0,0,0,763.107,259.635Z" transform="translate(283.508 72.494)" fill="#ffc107"/>
      <path id="Path_19" data-name="Path 19" d="M763.107,297.585H722.045a4.8,4.8,0,0,0-4.8,4.8v41.08a4.782,4.782,0,0,0,4.8,4.778h41.062a4.8,4.8,0,0,0,4.8-4.778v-41.08a4.81,4.81,0,0,0-4.8-4.8Z" transform="translate(283.508 104.548)" fill="#fff"/>
      <path id="Path_20" data-name="Path 20" d="M763.107,335.535H722.045a4.8,4.8,0,0,0-4.8,4.8V381.4a4.786,4.786,0,0,0,4.8,4.8h41.062a4.8,4.8,0,0,0,4.8-4.8V340.331A4.81,4.81,0,0,0,763.107,335.535Z" transform="translate(283.508 136.603)" fill="#ffc107"/>
      <path id="Path_21" data-name="Path 21" d="M763.107,373.485H722.045a4.8,4.8,0,0,0-4.8,4.8v41.062a4.786,4.786,0,0,0,4.8,4.8h41.062a4.8,4.8,0,0,0,4.8-4.8V378.281a4.81,4.81,0,0,0-4.8-4.8Z" transform="translate(283.508 168.657)" fill="#ffc107"/>
      <path id="Path_22" data-name="Path 22" d="M763.107,411.435H722.045a4.787,4.787,0,0,0-4.8,4.8V457.3a4.787,4.787,0,0,0,4.8,4.8h41.062a4.8,4.8,0,0,0,4.8-4.8V416.231a4.8,4.8,0,0,0-4.8-4.8Z" transform="translate(283.508 200.712)" fill="#ffc107"/>
      <path id="Path_23" data-name="Path 23" d="M809.867,259.635h-41.08a4.794,4.794,0,0,0-4.778,4.8v41.08a4.779,4.779,0,0,0,4.776,4.778h41.082a4.8,4.8,0,0,0,4.8-4.778v-41.08a4.81,4.81,0,0,0-4.8-4.8Z" transform="translate(323.004 72.494)" fill="#fff"/>
      <path id="Path_24" data-name="Path 24" d="M809.867,297.585h-41.08a4.794,4.794,0,0,0-4.778,4.8v41.08a4.778,4.778,0,0,0,4.777,4.778h41.081a4.794,4.794,0,0,0,4.8-4.778v-41.08a4.81,4.81,0,0,0-4.8-4.8Z" transform="translate(323.004 104.548)" fill="#fff"/>
      <path id="Path_25" data-name="Path 25" d="M809.867,335.535h-41.08a4.8,4.8,0,0,0-4.778,4.8V381.4a4.782,4.782,0,0,0,4.778,4.8h41.081a4.8,4.8,0,0,0,4.8-4.8V340.331A4.81,4.81,0,0,0,809.867,335.535Z" transform="translate(323.004 136.603)" fill="#fff"/>
      <path id="Path_26" data-name="Path 26" d="M809.867,373.485h-41.08a4.8,4.8,0,0,0-4.778,4.8v41.062a4.783,4.783,0,0,0,4.778,4.8h41.08a4.8,4.8,0,0,0,4.8-4.8V378.281a4.811,4.811,0,0,0-4.8-4.8Z" transform="translate(323.004 168.657)" fill="#e6e6e6"/>
      <path id="Path_27" data-name="Path 27" d="M809.867,411.435h-41.08a4.783,4.783,0,0,0-4.778,4.8V457.3a4.782,4.782,0,0,0,4.778,4.8h41.08a4.8,4.8,0,0,0,4.8-4.8V416.231a4.8,4.8,0,0,0-4.8-4.8Z" transform="translate(323.004 200.712)" fill="#e6e6e6"/>
      <path id="Path_28" data-name="Path 28" d="M856.627,259.635h-41.08a4.794,4.794,0,0,0-4.778,4.8v41.08a4.778,4.778,0,0,0,4.777,4.778h41.081a4.8,4.8,0,0,0,4.8-4.778v-41.08A4.81,4.81,0,0,0,856.627,259.635Z" transform="translate(362.5 72.494)" fill="#ffc107"/>
      <path id="Path_29" data-name="Path 29" d="M856.627,297.585h-41.08a4.794,4.794,0,0,0-4.778,4.8v41.08a4.778,4.778,0,0,0,4.777,4.778h41.081a4.794,4.794,0,0,0,4.8-4.778v-41.08a4.81,4.81,0,0,0-4.8-4.8Z" transform="translate(362.5 104.548)" fill="#ffc107"/>
      <path id="Path_30" data-name="Path 30" d="M856.627,335.535h-41.08a4.794,4.794,0,0,0-4.778,4.8V381.4a4.782,4.782,0,0,0,4.778,4.8h41.081a4.8,4.8,0,0,0,4.8-4.8V340.331a4.81,4.81,0,0,0-4.8-4.8Z" transform="translate(362.5 136.603)" fill="#ffc107"/>
      <path id="Path_31" data-name="Path 31" d="M856.627,373.485h-41.08a4.8,4.8,0,0,0-4.778,4.8v41.062a4.783,4.783,0,0,0,4.778,4.8h41.08a4.8,4.8,0,0,0,4.8-4.8V378.281a4.81,4.81,0,0,0-4.8-4.8Z" transform="translate(362.5 168.657)" fill="#ffc107"/>
      <path id="Path_32" data-name="Path 32" d="M856.627,411.435h-41.08a4.783,4.783,0,0,0-4.778,4.8V457.3a4.782,4.782,0,0,0,4.778,4.8h41.08a4.8,4.8,0,0,0,4.8-4.8V416.231a4.8,4.8,0,0,0-4.8-4.8Z" transform="translate(362.5 200.712)" fill="#ffc107"/>
      <path id="Path_33" data-name="Path 33" d="M903.387,259.635h-41.08a4.794,4.794,0,0,0-4.778,4.8v41.08a4.779,4.779,0,0,0,4.776,4.778h41.082a4.8,4.8,0,0,0,4.8-4.778v-41.08A4.81,4.81,0,0,0,903.387,259.635Z" transform="translate(401.995 72.494)" fill="#ffc107"/>
      <path id="Path_34" data-name="Path 34" d="M903.387,297.585h-41.08a4.794,4.794,0,0,0-4.778,4.8v41.08a4.778,4.778,0,0,0,4.777,4.778h41.081a4.794,4.794,0,0,0,4.8-4.778v-41.08a4.81,4.81,0,0,0-4.8-4.8Z" transform="translate(401.995 104.548)" fill="#e6e6e6"/>
      <path id="Path_35" data-name="Path 35" d="M903.387,335.535h-41.08a4.8,4.8,0,0,0-4.778,4.8V381.4a4.782,4.782,0,0,0,4.778,4.8h41.08a4.8,4.8,0,0,0,4.8-4.8V340.331a4.811,4.811,0,0,0-4.8-4.8Z" transform="translate(401.996 136.603)" fill="#ffc107"/>
      <path id="Path_36" data-name="Path 36" d="M903.387,373.485h-41.08a4.8,4.8,0,0,0-4.778,4.8v41.062a4.783,4.783,0,0,0,4.778,4.8h41.08a4.8,4.8,0,0,0,4.8-4.8V378.281a4.811,4.811,0,0,0-4.8-4.8Z" transform="translate(401.996 168.657)" fill="#fff"/>
      <path id="Path_37" data-name="Path 37" d="M903.387,411.435h-41.08a4.783,4.783,0,0,0-4.778,4.8V457.3a4.783,4.783,0,0,0,4.778,4.8h41.08a4.8,4.8,0,0,0,4.8-4.8V416.231a4.8,4.8,0,0,0-4.8-4.8Z" transform="translate(401.996 200.712)" fill="#ffc107"/>
      <path id="Path_38" data-name="Path 38" d="M950.147,259.635h-41.08a4.794,4.794,0,0,0-4.778,4.8v41.08a4.779,4.779,0,0,0,4.776,4.778h41.082a4.8,4.8,0,0,0,4.8-4.778v-41.08A4.81,4.81,0,0,0,950.147,259.635Z" transform="translate(441.491 72.494)" fill="#ffc107"/>
      <path id="Path_39" data-name="Path 39" d="M950.147,297.585h-41.08a4.794,4.794,0,0,0-4.778,4.8v41.08a4.778,4.778,0,0,0,4.777,4.778h41.081a4.794,4.794,0,0,0,4.8-4.778v-41.08a4.81,4.81,0,0,0-4.8-4.8Z" transform="translate(441.491 104.548)" fill="#e6e6e6"/>
      <path id="Path_40" data-name="Path 40" d="M950.147,335.535h-41.08a4.8,4.8,0,0,0-4.777,4.8V381.4a4.782,4.782,0,0,0,4.778,4.8h41.08a4.8,4.8,0,0,0,4.8-4.8V340.331a4.81,4.81,0,0,0-4.8-4.8Z" transform="translate(441.491 136.603)" fill="#ffc107"/>
      <path id="Path_41" data-name="Path 41" d="M950.147,373.485h-41.08a4.8,4.8,0,0,0-4.778,4.8v41.062a4.783,4.783,0,0,0,4.778,4.8h41.08a4.8,4.8,0,0,0,4.8-4.8V378.281a4.81,4.81,0,0,0-4.8-4.8Z" transform="translate(441.491 168.657)" fill="#e6e6e6"/>
      <path id="Path_42" data-name="Path 42" d="M950.147,411.435h-41.08a4.783,4.783,0,0,0-4.778,4.8V457.3a4.782,4.782,0,0,0,4.778,4.8h41.08a4.8,4.8,0,0,0,4.8-4.8V416.231a4.8,4.8,0,0,0-4.8-4.8Z" transform="translate(441.491 200.712)" fill="#ffc107"/>
      <path id="Path_43" data-name="Path 43" d="M996.907,259.635h-41.08a4.794,4.794,0,0,0-4.778,4.8v41.08a4.779,4.779,0,0,0,4.776,4.778h41.082a4.8,4.8,0,0,0,4.8-4.778v-41.08A4.81,4.81,0,0,0,996.907,259.635Z" transform="translate(480.987 72.494)" fill="#e6e6e6"/>
      <path id="Path_44" data-name="Path 44" d="M996.907,297.585h-41.08a4.794,4.794,0,0,0-4.778,4.8v41.08a4.779,4.779,0,0,0,4.776,4.778h41.082a4.794,4.794,0,0,0,4.8-4.778v-41.08a4.81,4.81,0,0,0-4.8-4.8Z" transform="translate(480.987 104.548)" fill="#ffc107"/>
      <path id="Path_45" data-name="Path 45" d="M996.907,335.535h-41.08a4.794,4.794,0,0,0-4.777,4.8V381.4a4.782,4.782,0,0,0,4.778,4.8h41.08a4.8,4.8,0,0,0,4.8-4.8V340.331a4.811,4.811,0,0,0-4.8-4.8Z" transform="translate(480.987 136.603)" fill="#ffc107"/>
      <path id="Path_46" data-name="Path 46" d="M996.907,373.485h-41.08a4.8,4.8,0,0,0-4.778,4.8v41.062a4.783,4.783,0,0,0,4.778,4.8h41.08a4.8,4.8,0,0,0,4.8-4.8V378.281a4.811,4.811,0,0,0-4.8-4.8Z" transform="translate(480.987 168.657)" fill="#ffc107"/>
      <path id="Path_47" data-name="Path 47" d="M996.907,411.435h-41.08a4.783,4.783,0,0,0-4.778,4.8V457.3a4.782,4.782,0,0,0,4.778,4.8h41.08a4.8,4.8,0,0,0,4.8-4.8V416.231a4.8,4.8,0,0,0-4.8-4.8Z" transform="translate(480.987 200.712)" fill="#e6e6e6"/>
      <path id="Path_48" data-name="Path 48" d="M1043.67,259.635h-41.08a4.794,4.794,0,0,0-4.778,4.8v41.08a4.779,4.779,0,0,0,4.776,4.778h41.083a4.794,4.794,0,0,0,4.8-4.778v-41.08a4.81,4.81,0,0,0-4.8-4.8Z" transform="translate(520.484 72.494)" fill="#e6e6e6"/>
      <path id="Path_49" data-name="Path 49" d="M1043.67,297.585h-41.08a4.8,4.8,0,0,0-4.778,4.8v41.08a4.779,4.779,0,0,0,4.776,4.778h41.082a4.794,4.794,0,0,0,4.8-4.778v-41.08a4.81,4.81,0,0,0-4.8-4.8Z" transform="translate(520.484 104.548)" fill="#e6e6e6"/>
      <path id="Path_50" data-name="Path 50" d="M1043.67,335.535h-41.08a4.8,4.8,0,0,0-4.778,4.8V381.4a4.782,4.782,0,0,0,4.778,4.8h41.08a4.8,4.8,0,0,0,4.8-4.8V340.331a4.81,4.81,0,0,0-4.8-4.8Z" transform="translate(520.484 136.603)" fill="#e6e6e6"/>
      <path id="Path_51" data-name="Path 51" d="M1043.67,373.485h-41.08a4.8,4.8,0,0,0-4.778,4.8v41.062a4.783,4.783,0,0,0,4.778,4.8h41.08a4.8,4.8,0,0,0,4.8-4.8V378.281a4.81,4.81,0,0,0-4.8-4.8Z" transform="translate(520.484 168.657)" fill="#e6e6e6"/>
      <path id="Path_52" data-name="Path 52" d="M1043.67,411.435h-41.08a4.783,4.783,0,0,0-4.778,4.8V457.3a4.783,4.783,0,0,0,4.778,4.8h41.081a4.8,4.8,0,0,0,4.8-4.8V416.231a4.8,4.8,0,0,0-4.8-4.8Z" transform="translate(520.484 200.712)" fill="#e6e6e6"/>
    </g>
    <path id="Path_53" data-name="Path 53" d="M336.619,660.11h-1.144l.978-.129Z" transform="translate(283.36 557.454)" fill="#2f2e41"/>
    <circle id="ab6171fa-7d69-4734-b81c-8dff60f9761b" cx="126.03" cy="126.03" r="126.03" transform="translate(395.663 199.98)" fill="#ffb6b6"/>
    <path id="bf427902-b9bf-4946-b5d7-5c1c7e04535e" d="M636.121,250.646s32.963-63.015-39.556-68.744c0,0-61.823-56.082-124.838-10.253,0,0-34.372,0-53.167,38.9,0,0-27.033-10.253-32.974,17.186,0,0-19.781,57.287,0,108.844s26.352,57.286,26.352,57.286-32.5-108.094,46.614-113.822,167.654-55.172,174.248,7.842,16.516,78.541,16.516,78.541S711.94,276.425,636.121,250.646Z" transform="translate(-4.059 -17.038)" fill="#2f2e41"/>
    <path id="Path_54" data-name="Path 54" d="M884.507,488.627l-.406,2.14-4.556,24.054L848.057,681.209l-1.863,9.8-3.911,20.715-5.349,28.26L825.073,802.61l-3.394,17.948-1.273,6.733-.443,2.361-3.523,18.576-1.07,5.608-8.6,63.7-7.508,55.506,25.124,25.124-14.979,14.979-9.832,56.317.018.129H398.331q-24.35-15.772-48-32.521l3.3-24.718S365,968.2,360.22,962.924c-4.759-5.276-15.2-14.7-15.2-14.7l13.153-30.7L360,913.266l-3.062-63.512-.074-1.531-1.015-20.937-.129-2.693-.2-4.04-3.892-80.575-.074-1.328-1.18-24.423L349.263,691l-.48-9.8-4.74-98-3.21-66.555-2.8-57.94,11.271-3.818,120.548-40.97L519.782,349l103.928.775,50.876.388,84.891,78.73,19.314,9.223.148.074,13.853,6.622,35.122,16.768,37.133,17.746L884.1,488.42Z" transform="translate(-36.801 147.98)" fill="#cacaca"/>
    <path id="Path_55" data-name="Path 55" d="M568.192,704.244a55.867,55.867,0,0,1-75.011-41.375L296.617,634.981l68.331-77.294,176.185,38.332a56.17,56.17,0,0,1,27.059,108.225Z" transform="translate(-71.78 324.243)" fill="#ffb6b6"/>
    <path id="Path_56" data-name="Path 56" d="M533.2,705.418a24.944,24.944,0,0,0-14.554-8.983L438,679.667l-8.282-1.715A34.924,34.924,0,0,1,406.6,661.22a35.344,35.344,0,0,1-4.519-14.573,34.855,34.855,0,0,1,1.642-13.8l27.946-84.208L449.8,494a77.1,77.1,0,0,0,3.855-20.383,79.963,79.963,0,0,0-16.731-53.292,78.754,78.754,0,0,0-90.406-25.161c-.461.166-.941.351-1.4.535a78.551,78.551,0,0,0-46.688,52.407l-19.7,71.665-40.636,147.74A106.559,106.559,0,0,0,328.408,801.58l116.158,13.613,53.753,6.309a24.9,24.9,0,0,0,27.375-19.793,9.041,9.041,0,0,0,.2-1.015l1.291-7.969,10.939-67.108.111-.683A24.857,24.857,0,0,0,533.2,705.418Z" transform="translate(-124.43 182.541)" fill="#cacaca"/>
    <path id="Path_57" data-name="Path 57" d="M531.782,717.862a55.867,55.867,0,0,0,68.426-51.54l190.667-55.328-78.548-66.885L543.309,606.9a56.17,56.17,0,0,0-11.527,110.96Z" transform="translate(89.835 312.775)" fill="#ffb6b6"/>
    <path id="Path_58" data-name="Path 58" d="M836.373,630.664,745.69,421.96a78.985,78.985,0,0,0-37.39-39.384,79.973,79.973,0,0,0-16.2-5.9c-.867-.221-1.734-.424-2.6-.591a77.721,77.721,0,0,0-35.934.664,78.976,78.976,0,0,0-50.433,40.084,1.839,1.839,0,0,0-.147.258,79.5,79.5,0,0,0-.683,71.665l1.125,2.25,64.083,128.7a34.865,34.865,0,0,1-19.369,48.311l-4.5,1.624L562.7,698.878a24.9,24.9,0,0,0-15.366,30.972l.2.646,22.693,72.6c.111.332.221.664.35,1a13.016,13.016,0,0,0,.738,1.826,24.869,24.869,0,0,0,29.164,13.89l43.682-11.529,8.91-2.361,112.8-29.791a106.548,106.548,0,0,0,70.5-145.47Z" transform="translate(139.001 169.343)" fill="#cacaca"/>
    <path id="Path_59" data-name="Path 59" d="M219.629,608.285a948.362,948.362,0,0,0,84.393,90.24h833.727a30.337,30.337,0,0,1,30.289,30.308l1.2,211.268a655.641,655.641,0,0,0,142.906-89.521q18.151-14.914,35.177-31.12,11.151-10.57,21.767-21.656a656,656,0,0,0,126.949-189.519Z" transform="translate(-136.808 366.982)" fill="#3f3d56"/>
    <path id="Path_60" data-name="Path 60" d="M933.99,711.025q-10.6,11.1-21.767,21.656H734.749V711.025Z" transform="translate(298.289 453.761)" fill="#fff"/>
    <path id="Path_61" data-name="Path 61" d="M919.083,337.984a10.215,10.215,0,0,0-8.984-5.349H305.348a10.246,10.246,0,0,0-10.219,10.238V704.83H920.337V342.873a9.933,9.933,0,0,0-1.254-4.889Z" transform="translate(-73.037 134.154)" fill="#3f3d56"/>
    <path id="Path_62" data-name="Path 62" d="M294.832,529.092v44.667a14.1,14.1,0,0,0,14.1,14.1H539.693v88.15h-3.066a1.832,1.832,0,0,0-1.832,1.832v6.131a1.832,1.832,0,0,0,1.832,1.832H679.88a1.832,1.832,0,0,0,1.832-1.832V677.84a1.832,1.832,0,0,0-1.832-1.832h-3.065v-88.15H907.574a14.1,14.1,0,0,0,14.1-14.1V529.092Z" transform="translate(-73.288 300.091)" fill="#3f3d56"/>
    <circle id="Ellipse_1" data-name="Ellipse 1" cx="57.749" cy="57.749" r="57.749" transform="translate(469.642 585.488)" fill="#ffc107"/>
    <path id="Path_63" data-name="Path 63" d="M681.456,317.5h-9.223c0-69.728-69.008-115.42-138.625-115.457a151.971,151.971,0,0,0-30.16,2.933c-11.179,2.232-22.781,4.907-34.181,8.393-44.954,13.78-86.643,40.416-86.643,104.131a144.973,144.973,0,0,0,4.685,36.672l-8.928,2.324a154.721,154.721,0,0,1-4.981-39c0-55.672,22.855-93.911,62.331-116.711,20.752-11.99,46.079-19.719,75.1-23.482a179.171,179.171,0,0,1,36.432-1.107C627.315,181.95,681.456,243.34,681.456,317.5Z" transform="translate(-6.926 1.629)" fill="#ffc107"/>
    <path id="Path_64" data-name="Path 64" d="M573.266,279.277l-3.634-26.858A29.355,29.355,0,0,0,535.967,227.4l-5.774.793a12.14,12.14,0,0,0-10.4,13.65l8.393,61.87a12.132,12.132,0,0,0,9.777,10.275,11.351,11.351,0,0,0,2.25.221,11.976,11.976,0,0,0,1.623-.11l6.456-.867A29.13,29.13,0,0,0,568.1,301.376c.5-.7.978-1.42,1.42-2.158a30.9,30.9,0,0,0,3.746-19.941Z" transform="translate(116.63 44.957)" fill="#ffc107"/>
    <path id="Path_65" data-name="Path 65" d="M526.468,228.275a11.863,11.863,0,0,0-4.3,3.542,12.079,12.079,0,0,0-2.379,8.983l8.393,61.87a12.133,12.133,0,0,0,9.777,10.275Z" transform="translate(116.63 46.006)" fill="#fff"/>
    <path id="Path_66" data-name="Path 66" d="M554.616,275.728l-3.634-26.858a28.979,28.979,0,0,0-9.223-17.635l8.356,61.556a11.4,11.4,0,0,0,.756,2.878,30.9,30.9,0,0,0,3.745-19.941Z" transform="translate(135.28 48.506)" fill="#3f3d56"/>
    <ellipse id="Ellipse_2" data-name="Ellipse 2" cx="4.612" cy="12.913" rx="4.612" ry="12.913" transform="translate(653.131 318.61) rotate(-7.726)" fill="#3f3d56"/>
    <ellipse id="Ellipse_3" data-name="Ellipse 3" cx="4.612" cy="12.913" rx="4.612" ry="12.913" transform="translate(647.597 285.406) rotate(-7.726)" fill="#3f3d56"/>
    <ellipse id="Ellipse_4" data-name="Ellipse 4" cx="4.612" cy="12.913" rx="4.612" ry="12.913" transform="translate(682.646 298.319) rotate(-7.726)" fill="#3f3d56"/>
    <path id="Path_67" data-name="Path 67" d="M505.066,202.038a151.968,151.968,0,0,0-30.16,2.933c-11.179,2.232-22.781,4.907-34.181,8.393-17.8-.867-30.9-5.479-33.536-12.581,20.752-11.99,46.079-19.719,75.1-23.482a179.177,179.177,0,0,1,36.432-1.107,10.564,10.564,0,0,1,5.017,7.047C524.6,189.661,517.278,196.486,505.066,202.038Z" transform="translate(21.615 1.629)" fill="#3f3d56"/>
    <path id="Path_68" data-name="Path 68" d="M421.211,318.233l-14.2-59.047a11.112,11.112,0,0,0-9-8.393,12.42,12.42,0,0,0-1.845-.148,11.118,11.118,0,0,0-2.582.314l-5.5,1.328a27.493,27.493,0,0,0-20.273,33.13l6.364,26.489a29.229,29.229,0,0,0,9.85,15.9,25.905,25.905,0,0,0,2.509,1.789,27.318,27.318,0,0,0,20.974,3.394l5.479-1.328a10.772,10.772,0,0,0,4-1.863,11.055,11.055,0,0,0,4.224-11.566Z" transform="translate(-12.293 64.9)" fill="#ffc107"/>
    <ellipse id="Ellipse_5" data-name="Ellipse 5" cx="4.612" cy="12.913" rx="4.612" ry="12.913" transform="translate(368.618 348.121) rotate(-13.53)" fill="#3f3d56"/>
    <ellipse id="Ellipse_6" data-name="Ellipse 6" cx="4.612" cy="12.913" rx="4.612" ry="12.913" transform="translate(350.171 353.655) rotate(-13.53)" fill="#3f3d56"/>
    <path id="Path_69" data-name="Path 69" d="M407.871,318.358l-14.2-59.047a12.049,12.049,0,0,0-9.758-9.076L403.3,330.883a12.011,12.011,0,0,0,4.575-12.525Z" transform="translate(1.951 64.554)" fill="#fff"/>
    <path id="Path_70" data-name="Path 70" d="M371.022,265.224a11.946,11.946,0,0,0-2.158-4.519,27.163,27.163,0,0,0-1.051,16.214l6.364,26.489a29.228,29.228,0,0,0,9.85,15.9Z" transform="translate(-12.297 73.398)" fill="#3f3d56"/>
    <text id="SB" transform="translate(492 661.994)" fill="#fff" font-size="58" font-family="SegoeUI-Bold, Segoe UI" font-weight="700"><tspan x="0" y="0">SB</tspan></text>
  </g>
</svg>
